<mxfile host="app.diagrams.net" modified="2023-10-25T15:34:29.578Z" agent="Mozilla/5.0 (Windows NT 10.0; Win64; x64; rv:109.0) Gecko/20100101 Firefox/118.0" etag="uLl481hhyIY5ao5WqtKW" version="22.0.6" type="github">
  <diagram name="Page-1" id="yOUFaCtAM69SyQl96-M3">
    <mxGraphModel dx="449" dy="313" grid="1" gridSize="5" guides="1" tooltips="1" connect="1" arrows="1" fold="1" page="1" pageScale="1" pageWidth="850" pageHeight="1100" math="0" shadow="0">
      <root>
        <mxCell id="0" />
        <mxCell id="1" parent="0" />
        <mxCell id="DhphQR0WTkYj_wjM38mZ-2" value="&lt;br&gt;Azure Function&lt;br&gt;Java&lt;br&gt;Serverles&lt;br&gt;(central station)" style="rounded=0;whiteSpace=wrap;html=1;fillColor=#fff2cc;strokeColor=#d6b656;" vertex="1" parent="1">
          <mxGeometry x="530" y="440" width="120" height="80" as="geometry" />
        </mxCell>
        <mxCell id="DhphQR0WTkYj_wjM38mZ-3" value="pubsub" style="rounded=0;whiteSpace=wrap;html=1;fillColor=#ffe6cc;strokeColor=#d79b00;" vertex="1" parent="1">
          <mxGeometry x="280" y="450" width="80" height="60" as="geometry" />
        </mxCell>
        <mxCell id="DhphQR0WTkYj_wjM38mZ-4" value="Charging Stations" style="rounded=0;whiteSpace=wrap;html=1;fillColor=#fff2cc;strokeColor=#d6b656;" vertex="1" parent="1">
          <mxGeometry x="40" y="450" width="80" height="60" as="geometry" />
        </mxCell>
        <mxCell id="DhphQR0WTkYj_wjM38mZ-5" value="" style="shape=flexArrow;endArrow=classic;startArrow=classic;html=1;rounded=0;exitX=1;exitY=0.5;exitDx=0;exitDy=0;entryX=0;entryY=0.5;entryDx=0;entryDy=0;fillColor=#dae8fc;strokeColor=#6c8ebf;" edge="1" parent="1" source="DhphQR0WTkYj_wjM38mZ-4" target="DhphQR0WTkYj_wjM38mZ-3">
          <mxGeometry width="100" height="100" relative="1" as="geometry">
            <mxPoint x="160" y="540" as="sourcePoint" />
            <mxPoint x="260" y="440" as="targetPoint" />
          </mxGeometry>
        </mxCell>
        <mxCell id="DhphQR0WTkYj_wjM38mZ-6" value="&lt;div&gt;websocket&lt;/div&gt;&lt;div&gt;wss://&lt;br&gt;&lt;/div&gt;" style="rounded=0;whiteSpace=wrap;html=1;fillColor=#dae8fc;strokeColor=#6c8ebf;" vertex="1" parent="1">
          <mxGeometry x="150" y="440" width="100" height="30" as="geometry" />
        </mxCell>
        <mxCell id="DhphQR0WTkYj_wjM38mZ-7" value="http" style="rounded=0;whiteSpace=wrap;html=1;fillColor=#d5e8d4;strokeColor=#82b366;" vertex="1" parent="1">
          <mxGeometry x="420" y="465" width="50" height="25" as="geometry" />
        </mxCell>
        <mxCell id="DhphQR0WTkYj_wjM38mZ-8" value="" style="endArrow=classic;html=1;rounded=0;exitX=1;exitY=0.25;exitDx=0;exitDy=0;" edge="1" parent="1" source="DhphQR0WTkYj_wjM38mZ-3">
          <mxGeometry width="50" height="50" relative="1" as="geometry">
            <mxPoint x="380" y="480" as="sourcePoint" />
            <mxPoint x="530" y="465" as="targetPoint" />
          </mxGeometry>
        </mxCell>
        <mxCell id="DhphQR0WTkYj_wjM38mZ-9" value="" style="endArrow=classic;html=1;rounded=0;exitX=0.011;exitY=0.632;exitDx=0;exitDy=0;exitPerimeter=0;" edge="1" parent="1" source="DhphQR0WTkYj_wjM38mZ-2">
          <mxGeometry width="50" height="50" relative="1" as="geometry">
            <mxPoint x="480" y="480" as="sourcePoint" />
            <mxPoint x="360" y="490" as="targetPoint" />
          </mxGeometry>
        </mxCell>
        <mxCell id="DhphQR0WTkYj_wjM38mZ-10" value="&lt;br&gt;AWS Lambda&lt;br&gt;Java&lt;br&gt;Serverles&lt;br&gt;(central station)" style="rounded=0;whiteSpace=wrap;html=1;" vertex="1" parent="1">
          <mxGeometry x="530" y="120" width="120" height="70" as="geometry" />
        </mxCell>
        <mxCell id="DhphQR0WTkYj_wjM38mZ-11" value="AWS&lt;br&gt;Websocket gateway" style="rounded=0;whiteSpace=wrap;html=1;" vertex="1" parent="1">
          <mxGeometry x="280" y="130" width="80" height="60" as="geometry" />
        </mxCell>
        <mxCell id="DhphQR0WTkYj_wjM38mZ-12" value="Charging Stations" style="rounded=0;whiteSpace=wrap;html=1;" vertex="1" parent="1">
          <mxGeometry x="40" y="130" width="80" height="60" as="geometry" />
        </mxCell>
        <mxCell id="DhphQR0WTkYj_wjM38mZ-13" value="" style="shape=flexArrow;endArrow=classic;startArrow=classic;html=1;rounded=0;exitX=1;exitY=0.5;exitDx=0;exitDy=0;entryX=0;entryY=0.5;entryDx=0;entryDy=0;" edge="1" parent="1" source="DhphQR0WTkYj_wjM38mZ-12" target="DhphQR0WTkYj_wjM38mZ-11">
          <mxGeometry width="100" height="100" relative="1" as="geometry">
            <mxPoint x="160" y="220" as="sourcePoint" />
            <mxPoint x="260" y="120" as="targetPoint" />
          </mxGeometry>
        </mxCell>
        <mxCell id="DhphQR0WTkYj_wjM38mZ-14" value="&lt;div&gt;websocket&lt;/div&gt;&lt;div&gt;wss://&lt;br&gt;&lt;/div&gt;" style="rounded=0;whiteSpace=wrap;html=1;" vertex="1" parent="1">
          <mxGeometry x="155" y="130" width="90" height="30" as="geometry" />
        </mxCell>
        <mxCell id="DhphQR0WTkYj_wjM38mZ-15" value="http" style="rounded=0;whiteSpace=wrap;html=1;" vertex="1" parent="1">
          <mxGeometry x="410" y="120" width="60" height="25" as="geometry" />
        </mxCell>
        <mxCell id="DhphQR0WTkYj_wjM38mZ-16" value="" style="endArrow=classic;html=1;rounded=0;exitX=1;exitY=0.25;exitDx=0;exitDy=0;" edge="1" parent="1" source="DhphQR0WTkYj_wjM38mZ-11">
          <mxGeometry width="50" height="50" relative="1" as="geometry">
            <mxPoint x="380" y="160" as="sourcePoint" />
            <mxPoint x="530" y="145" as="targetPoint" />
          </mxGeometry>
        </mxCell>
        <mxCell id="DhphQR0WTkYj_wjM38mZ-17" value="" style="endArrow=classic;html=1;rounded=0;exitX=0.011;exitY=0.632;exitDx=0;exitDy=0;exitPerimeter=0;entryX=1;entryY=0.555;entryDx=0;entryDy=0;entryPerimeter=0;" edge="1" parent="1" source="DhphQR0WTkYj_wjM38mZ-10" target="DhphQR0WTkYj_wjM38mZ-11">
          <mxGeometry width="50" height="50" relative="1" as="geometry">
            <mxPoint x="480" y="160" as="sourcePoint" />
            <mxPoint x="360" y="170" as="targetPoint" />
          </mxGeometry>
        </mxCell>
        <mxCell id="DhphQR0WTkYj_wjM38mZ-18" value="AWS" style="rounded=1;whiteSpace=wrap;html=1;" vertex="1" parent="1">
          <mxGeometry x="270" y="40" width="100" height="40" as="geometry" />
        </mxCell>
        <mxCell id="DhphQR0WTkYj_wjM38mZ-19" value="Azure" style="rounded=1;whiteSpace=wrap;html=1;strokeWidth=1;fontSize=18;fillColor=#b1ddf0;strokeColor=#10739e;" vertex="1" parent="1">
          <mxGeometry x="270" y="350" width="100" height="40" as="geometry" />
        </mxCell>
        <mxCell id="DhphQR0WTkYj_wjM38mZ-24" style="edgeStyle=orthogonalEdgeStyle;rounded=0;orthogonalLoop=1;jettySize=auto;html=1;exitX=1;exitY=0.5;exitDx=0;exitDy=0;entryX=0;entryY=0.5;entryDx=0;entryDy=0;" edge="1" parent="1" source="DhphQR0WTkYj_wjM38mZ-20" target="DhphQR0WTkYj_wjM38mZ-22">
          <mxGeometry relative="1" as="geometry" />
        </mxCell>
        <mxCell id="DhphQR0WTkYj_wjM38mZ-20" value="$connect" style="rounded=0;whiteSpace=wrap;html=1;" vertex="1" parent="1">
          <mxGeometry x="280" y="200" width="80" height="20" as="geometry" />
        </mxCell>
        <mxCell id="DhphQR0WTkYj_wjM38mZ-21" value="$default" style="rounded=0;whiteSpace=wrap;html=1;" vertex="1" parent="1">
          <mxGeometry x="280" y="230" width="80" height="20" as="geometry" />
        </mxCell>
        <mxCell id="DhphQR0WTkYj_wjM38mZ-22" value="lamda handleConnect(input, context)" style="rounded=0;whiteSpace=wrap;html=1;" vertex="1" parent="1">
          <mxGeometry x="460" y="200" width="230" height="20" as="geometry" />
        </mxCell>
        <mxCell id="DhphQR0WTkYj_wjM38mZ-23" value="lamda handleMessage(input, context)" style="rounded=0;whiteSpace=wrap;html=1;" vertex="1" parent="1">
          <mxGeometry x="460" y="230" width="230" height="20" as="geometry" />
        </mxCell>
        <mxCell id="DhphQR0WTkYj_wjM38mZ-25" style="edgeStyle=orthogonalEdgeStyle;rounded=0;orthogonalLoop=1;jettySize=auto;html=1;exitX=1;exitY=0.5;exitDx=0;exitDy=0;entryX=-0.009;entryY=0.467;entryDx=0;entryDy=0;entryPerimeter=0;" edge="1" parent="1" source="DhphQR0WTkYj_wjM38mZ-21" target="DhphQR0WTkYj_wjM38mZ-23">
          <mxGeometry relative="1" as="geometry" />
        </mxCell>
        <mxCell id="DhphQR0WTkYj_wjM38mZ-28" value="hearthbeat" style="rounded=0;whiteSpace=wrap;html=1;fillColor=#dae8fc;strokeColor=#6c8ebf;" vertex="1" parent="1">
          <mxGeometry x="150" y="490" width="100" height="30" as="geometry" />
        </mxCell>
        <mxCell id="DhphQR0WTkYj_wjM38mZ-29" value="DB" style="shape=cylinder3;whiteSpace=wrap;html=1;boundedLbl=1;backgroundOutline=1;size=15;fillColor=#e1d5e7;strokeColor=#9673a6;" vertex="1" parent="1">
          <mxGeometry x="560" y="360" width="60" height="50" as="geometry" />
        </mxCell>
        <mxCell id="DhphQR0WTkYj_wjM38mZ-31" value="&lt;h1 style=&quot;font-size: 12px;&quot; class=&quot;font-size-h2&quot;&gt;&lt;span style=&quot;font-weight: normal; font-size: 12px;&quot;&gt;Cosmos DB &lt;/span&gt;&lt;/h1&gt;" style="rounded=0;whiteSpace=wrap;html=1;fontSize=12;fontStyle=0;align=center;fillColor=#e1d5e7;strokeColor=#9673a6;" vertex="1" parent="1">
          <mxGeometry x="540" y="340" width="100" height="15" as="geometry" />
        </mxCell>
        <mxCell id="DhphQR0WTkYj_wjM38mZ-33" value="while the app is open,&lt;br&gt;otherwise,&lt;br&gt;Use notification hub" style="rounded=0;whiteSpace=wrap;html=1;" vertex="1" parent="1">
          <mxGeometry x="270" y="630" width="120" height="70" as="geometry" />
        </mxCell>
        <mxCell id="DhphQR0WTkYj_wjM38mZ-35" value="notifications" style="rounded=0;whiteSpace=wrap;html=1;" vertex="1" parent="1">
          <mxGeometry x="320" y="550" width="80" height="20" as="geometry" />
        </mxCell>
        <mxCell id="DhphQR0WTkYj_wjM38mZ-36" value="app" style="rounded=0;whiteSpace=wrap;html=1;" vertex="1" parent="1">
          <mxGeometry x="270" y="610" width="120" height="20" as="geometry" />
        </mxCell>
        <mxCell id="DhphQR0WTkYj_wjM38mZ-37" style="edgeStyle=orthogonalEdgeStyle;rounded=0;orthogonalLoop=1;jettySize=auto;html=1;entryX=0.418;entryY=-0.062;entryDx=0;entryDy=0;entryPerimeter=0;" edge="1" parent="1" source="DhphQR0WTkYj_wjM38mZ-3" target="DhphQR0WTkYj_wjM38mZ-36">
          <mxGeometry relative="1" as="geometry" />
        </mxCell>
        <mxCell id="DhphQR0WTkYj_wjM38mZ-40" style="edgeStyle=orthogonalEdgeStyle;rounded=0;orthogonalLoop=1;jettySize=auto;html=1;exitX=0.145;exitY=1;exitDx=0;exitDy=-4.35;exitPerimeter=0;entryX=0.332;entryY=-0.016;entryDx=0;entryDy=0;entryPerimeter=0;" edge="1" parent="1" source="DhphQR0WTkYj_wjM38mZ-29" target="DhphQR0WTkYj_wjM38mZ-2">
          <mxGeometry relative="1" as="geometry" />
        </mxCell>
        <mxCell id="DhphQR0WTkYj_wjM38mZ-41" style="edgeStyle=orthogonalEdgeStyle;rounded=0;orthogonalLoop=1;jettySize=auto;html=1;entryX=0.855;entryY=1;entryDx=0;entryDy=-4.35;entryPerimeter=0;" edge="1" parent="1" target="DhphQR0WTkYj_wjM38mZ-29">
          <mxGeometry relative="1" as="geometry">
            <mxPoint x="610" y="440" as="sourcePoint" />
          </mxGeometry>
        </mxCell>
      </root>
    </mxGraphModel>
  </diagram>
</mxfile>
